<svg width="74" height="23" viewBox="0 0 74 23" fill="none" xmlns="http://www.w3.org/2000/svg">
<path d="M4.89062 1.16C5.25863 1.16 5.56263 1.24 5.80263 1.4C6.04263 1.56 6.16263 1.768 6.16263 2.024C6.16263 2.216 5.92263 2.536 5.44263 2.984C5.15463 3.272 5.01063 3.416 5.01063 3.416C4.33863 4.184 3.76263 5.376 3.28263 6.992C2.81863 8.592 2.58663 10.2 2.58663 11.816C2.58663 13.608 2.78663 15.072 3.18663 16.208C3.79463 17.872 4.33063 18.968 4.79463 19.496C4.87463 19.592 4.97863 19.696 5.10663 19.808C5.23463 19.936 5.33863 20.04 5.41863 20.12C5.72263 20.392 5.95463 20.632 6.11463 20.84C6.29063 21.048 6.37863 21.248 6.37863 21.44C6.37863 21.616 6.29863 21.784 6.13863 21.944C5.99463 22.12 5.84263 22.208 5.68263 22.208C5.26663 22.208 4.77063 22.032 4.19463 21.68C3.61863 21.328 3.20263 20.984 2.94663 20.648C2.11463 19.624 1.45863 18.296 0.978625 16.664C0.514625 15.032 0.282625 13.208 0.282625 11.192C0.282625 10.232 0.394625 9.224 0.618625 8.168C0.842625 7.112 1.13063 6.136 1.48263 5.24C1.65863 4.76 1.93863 4.2 2.32263 3.56C2.72263 2.904 3.15463 2.344 3.61863 1.88C4.08263 1.4 4.50663 1.16 4.89062 1.16ZM14.0148 0.368C14.3508 0.368 14.6148 0.44 14.8068 0.584C15.0148 0.728 15.1188 0.912 15.1188 1.136C15.1188 1.568 14.9108 1.992 14.4948 2.408C14.0948 2.808 13.6708 3.136 13.2228 3.392C12.9828 3.536 12.6708 3.656 12.2868 3.752C11.9188 3.848 11.6388 3.896 11.4468 3.896C11.1108 3.896 10.9428 3.736 10.9428 3.416C10.9428 3.32 10.9748 3.232 11.0388 3.152C11.1028 3.072 11.2388 2.952 11.4468 2.792C11.5108 2.728 11.6068 2.64 11.7348 2.528C11.8788 2.4 12.0148 2.256 12.1428 2.096C12.2708 1.92 12.3988 1.688 12.5268 1.4C12.7188 1.016 12.9268 0.751999 13.1508 0.607999C13.3908 0.447999 13.6788 0.368 14.0148 0.368ZM17.4948 9.296C17.6228 9.52 17.7268 9.848 17.8068 10.28C17.8868 10.696 17.9268 11.072 17.9268 11.408C17.9268 12.032 17.7908 12.92 17.5188 14.072C16.4148 16.088 14.7828 17.096 12.6228 17.096C11.8228 17.096 11.0068 16.832 10.1748 16.304C9.34275 15.776 8.76675 15.168 8.44675 14.48C8.01475 13.104 7.79875 12.232 7.79875 11.864C7.79875 11.224 7.93475 10.544 8.20675 9.824C8.49475 9.104 8.85475 8.48 9.28675 7.952C9.55875 7.584 10.0468 7.272 10.7508 7.016C11.4548 6.744 12.0948 6.608 12.6708 6.608C13.7908 6.608 14.7428 6.824 15.5268 7.256C16.3108 7.672 16.9668 8.352 17.4948 9.296ZM15.4068 13.16C15.4868 12.952 15.5268 12.416 15.5268 11.552C15.5268 11.088 15.4388 10.632 15.2628 10.184C15.1028 9.736 14.8628 9.352 14.5428 9.032C14.5108 9 14.4228 8.952 14.2788 8.888C14.1348 8.808 13.9348 8.736 13.6788 8.672C13.4388 8.592 13.1588 8.552 12.8388 8.552C11.9428 8.552 11.2868 8.912 10.8708 9.632C10.4548 10.352 10.2467 11.168 10.2467 12.08C10.2467 12.24 10.2868 12.544 10.3668 12.992C10.4628 13.44 10.5428 13.72 10.6068 13.832C10.6548 13.944 10.7748 14.104 10.9668 14.312C11.1748 14.504 11.4228 14.68 11.7108 14.84C12.0148 14.984 12.3268 15.056 12.6468 15.056C13.3668 15.056 13.9428 14.888 14.3748 14.552C14.8068 14.2 15.1508 13.736 15.4068 13.16ZM19 16.328C19.864 16.328 20.632 16.76 21.256 17.12C21.592 17.312 22.408 17.696 23.008 17.696C23.584 17.696 24.136 17.48 24.808 17.12C25.36 16.808 25.96 16.328 26.992 16.328C28.048 16.328 28.624 16.808 29.2 17.12C29.872 17.48 30.424 17.696 31 17.696C31.576 17.696 32.416 17.312 32.752 17.12C33.352 16.76 34.12 16.328 34.984 16.328C35.848 16.328 36.616 16.76 37.216 17.12C37.552 17.312 38.392 17.696 38.968 17.696C39.544 17.696 40.096 17.48 40.768 17.12C41.344 16.808 41.968 16.328 43 16.328V17.696C42.16 17.696 41.584 18.08 41.272 18.272C40.48 18.704 39.856 19.064 38.968 19.064C38.08 19.064 37.288 18.56 36.736 18.272C36.064 17.912 35.536 17.696 34.984 17.696C34.432 17.696 33.904 17.912 33.232 18.272C32.68 18.584 31.888 19.064 31 19.064C30.112 19.064 29.488 18.704 28.696 18.272C28.384 18.08 27.832 17.696 26.992 17.696C26.152 17.696 25.624 18.08 25.312 18.272C24.496 18.704 23.872 19.064 23.008 19.064C22.12 19.064 21.304 18.56 20.776 18.272C20.104 17.912 19.576 17.696 19 17.696V16.328ZM47.656 0.368C47.992 0.368 48.272 0.447999 48.496 0.607999C48.72 0.751999 48.928 1.016 49.12 1.4C49.28 1.736 49.424 1.992 49.552 2.168C49.696 2.328 49.824 2.464 49.936 2.576C50.064 2.672 50.16 2.744 50.224 2.792C50.416 2.952 50.544 3.072 50.608 3.152C50.672 3.232 50.704 3.32 50.704 3.416C50.704 3.56 50.664 3.68 50.584 3.776C50.504 3.856 50.384 3.896 50.224 3.896C50.016 3.896 49.72 3.848 49.336 3.752C48.968 3.656 48.664 3.536 48.424 3.392C47.96 3.12 47.528 2.784 47.128 2.384C46.728 1.984 46.528 1.568 46.528 1.136C46.528 0.912 46.632 0.728 46.84 0.584C47.048 0.44 47.32 0.368 47.656 0.368ZM53.776 9.296C53.904 9.52 54.008 9.848 54.088 10.28C54.168 10.696 54.208 11.072 54.208 11.408C54.208 12.032 54.072 12.92 53.8 14.072C52.696 16.088 51.064 17.096 48.904 17.096C48.104 17.096 47.288 16.832 46.456 16.304C45.624 15.776 45.048 15.168 44.728 14.48C44.296 13.104 44.08 12.232 44.08 11.864C44.08 11.224 44.216 10.544 44.488 9.824C44.776 9.104 45.136 8.48 45.568 7.952C45.84 7.584 46.328 7.272 47.032 7.016C47.736 6.744 48.376 6.608 48.952 6.608C50.072 6.608 51.024 6.824 51.808 7.256C52.592 7.672 53.248 8.352 53.776 9.296ZM51.688 13.16C51.768 12.952 51.808 12.416 51.808 11.552C51.808 11.088 51.72 10.632 51.544 10.184C51.384 9.736 51.144 9.352 50.824 9.032C50.792 9 50.704 8.952 50.56 8.888C50.416 8.808 50.216 8.736 49.96 8.672C49.72 8.592 49.44 8.552 49.12 8.552C48.224 8.552 47.568 8.912 47.152 9.632C46.736 10.352 46.528 11.168 46.528 12.08C46.528 12.24 46.568 12.544 46.648 12.992C46.744 13.44 46.824 13.72 46.888 13.832C46.936 13.944 47.056 14.104 47.248 14.312C47.456 14.504 47.704 14.68 47.992 14.84C48.296 14.984 48.608 15.056 48.928 15.056C49.648 15.056 50.224 14.888 50.656 14.552C51.088 14.2 51.432 13.736 51.688 13.16ZM59.7453 11.168C61.7853 11.168 63.4173 12.8 63.4173 14.816C63.4173 16.832 61.7853 18.464 59.7453 18.464C57.7533 18.464 56.0973 16.832 56.0973 14.816C56.0973 12.8 57.7533 11.168 59.7453 11.168ZM59.7453 17.24C61.1133 17.24 62.1933 16.16 62.1933 14.816C62.1933 13.472 61.1133 12.392 59.7453 12.392C58.4253 12.392 57.3213 13.472 57.3213 14.816C57.3213 16.16 58.4253 17.24 59.7453 17.24ZM69.1053 1.16C69.5053 1.16 69.9293 1.384 70.3773 1.832C70.8413 2.264 71.2653 2.792 71.6493 3.416C72.0493 4.024 72.3373 4.56 72.5133 5.024C72.8493 5.888 73.1293 6.888 73.3533 8.024C73.5773 9.144 73.6893 10.2 73.6893 11.192C73.6893 13.224 73.4573 15.056 72.9933 16.688C72.5293 18.304 71.8813 19.624 71.0493 20.648C70.7933 20.984 70.3773 21.328 69.8013 21.68C69.2253 22.032 68.7293 22.208 68.3133 22.208C68.1373 22.208 67.9693 22.12 67.8093 21.944C67.6653 21.784 67.5933 21.616 67.5933 21.44C67.5933 21.248 67.6733 21.048 67.8333 20.84C68.0093 20.648 68.2573 20.408 68.5773 20.12C68.9933 19.704 69.2013 19.496 69.2013 19.496C69.6653 18.968 70.2013 17.872 70.8092 16.208C71.2093 15.072 71.4093 13.608 71.4093 11.816C71.4093 10.2 71.1693 8.568 70.6893 6.92C70.2253 5.256 69.6573 4.048 68.9853 3.296L68.5053 2.864C68.0413 2.464 67.8093 2.176 67.8093 2C67.8093 1.728 67.9293 1.52 68.1693 1.376C68.4093 1.232 68.7213 1.16 69.1053 1.16Z" fill="#8A5B4A"/>
</svg>
