<svg width="89" height="12" viewBox="0 0 89 12" fill="none" xmlns="http://www.w3.org/2000/svg">
<path d="M0.278409 6.31818C0.278409 5.24432 0.417614 4.2571 0.696023 3.35653C0.977273 2.45312 1.37784 1.62216 1.89773 0.863636H2.78409C2.57955 1.14489 2.38778 1.49148 2.20881 1.90341C2.03267 2.3125 1.87784 2.76278 1.74432 3.25426C1.6108 3.7429 1.50568 4.24858 1.42898 4.77131C1.35511 5.29403 1.31818 5.80966 1.31818 6.31818C1.31818 6.99432 1.38352 7.6804 1.5142 8.37642C1.64489 9.07244 1.82102 9.71875 2.04261 10.3153C2.2642 10.9119 2.51136 11.3977 2.78409 11.7727H1.89773C1.37784 11.0142 0.977273 10.1847 0.696023 9.28409C0.417614 8.38068 0.278409 7.39205 0.278409 6.31818ZM4.52366 10.984L4.09166 10.54L8.15966 6.472L8.60366 6.904L4.52366 10.984ZM10.5237 10.984L10.0917 10.54L14.1597 6.472L14.6037 6.904L10.5237 10.984ZM16.5237 10.984L16.0917 10.54L20.1597 6.472L20.6037 6.904L16.5237 10.984ZM24.7227 8.39773C24.3789 8.39773 24.065 8.31392 23.7809 8.14631C23.4968 7.97585 23.2695 7.74858 23.0991 7.46449C22.9315 7.1804 22.8477 6.86648 22.8477 6.52273C22.8477 6.17614 22.9315 5.86222 23.0991 5.58097C23.2695 5.29687 23.4968 5.07102 23.7809 4.90341C24.065 4.73295 24.3789 4.64773 24.7227 4.64773C25.0692 4.64773 25.3832 4.73295 25.6644 4.90341C25.9485 5.07102 26.1744 5.29687 26.342 5.58097C26.5124 5.86222 26.5977 6.17614 26.5977 6.52273C26.5977 6.86648 26.5124 7.1804 26.342 7.46449C26.1744 7.74858 25.9485 7.97585 25.6644 8.14631C25.3832 8.31392 25.0692 8.39773 24.7227 8.39773ZM33.0153 3.45455H34.1573C33.8817 3.9233 33.6715 4.34091 33.5266 4.70739C33.3846 5.07386 33.288 5.42045 33.2369 5.74716C33.1857 6.07386 33.1602 6.41193 33.1602 6.76136C33.1602 7.52841 33.2809 8.12358 33.5224 8.54688C33.7667 8.97017 34.1005 9.18182 34.5238 9.18182C34.896 9.18182 35.1928 9.01705 35.4144 8.6875C35.6388 8.35511 35.7511 7.87216 35.7511 7.23864V5.27841H36.5522V7.23864C36.5522 7.85511 36.4698 8.37784 36.305 8.80682C36.1431 9.2358 35.9045 9.5625 35.5891 9.78693C35.2738 10.0085 34.8903 10.1193 34.4386 10.1193C33.9471 10.1193 33.5266 9.98295 33.1772 9.71023C32.8306 9.4375 32.565 9.04545 32.3803 8.53409C32.1957 8.01989 32.1033 7.40057 32.1033 6.67614C32.1033 6.08523 32.1786 5.52273 32.3292 4.98864C32.4798 4.45455 32.7085 3.94318 33.0153 3.45455ZM38.521 3.45455H39.663C39.9698 3.94318 40.1985 4.45455 40.3491 4.98864C40.4996 5.52273 40.5749 6.08523 40.5749 6.67614C40.5749 7.40057 40.4826 8.01989 40.2979 8.53409C40.1133 9.04545 39.8462 9.4375 39.4968 9.71023C39.1502 9.98295 38.7312 10.1193 38.2397 10.1193C37.788 10.1193 37.4045 10.0085 37.0891 9.78693C36.7738 9.5625 36.5337 9.2358 36.369 8.80682C36.207 8.37784 36.1261 7.85511 36.1261 7.23864V5.27841H36.9272V7.23864C36.9272 7.87216 37.0394 8.35511 37.2638 8.6875C37.4883 9.01705 37.7852 9.18182 38.1545 9.18182C38.4386 9.18182 38.6815 9.08665 38.8832 8.89631C39.0877 8.70597 39.244 8.4304 39.3519 8.0696C39.4627 7.70881 39.5181 7.27273 39.5181 6.76136C39.5181 6.41193 39.4925 6.07386 39.4414 5.74716C39.3903 5.42045 39.2923 5.07386 39.1474 4.70739C39.0053 4.34091 38.7965 3.9233 38.521 3.45455ZM47.9609 8.39773C47.6172 8.39773 47.3033 8.31392 47.0192 8.14631C46.7351 7.97585 46.5078 7.74858 46.3374 7.46449C46.1697 7.1804 46.0859 6.86648 46.0859 6.52273C46.0859 6.17614 46.1697 5.86222 46.3374 5.58097C46.5078 5.29687 46.7351 5.07102 47.0192 4.90341C47.3033 4.73295 47.6172 4.64773 47.9609 4.64773C48.3075 4.64773 48.6214 4.73295 48.9027 4.90341C49.1868 5.07102 49.4126 5.29687 49.5803 5.58097C49.7507 5.86222 49.8359 6.17614 49.8359 6.52273C49.8359 6.86648 49.7507 7.1804 49.5803 7.46449C49.4126 7.74858 49.1868 7.97585 48.9027 8.14631C48.6214 8.31392 48.3075 8.39773 47.9609 8.39773ZM52.5119 10.984L52.0799 10.54L56.1479 6.472L56.5919 6.904L52.5119 10.984ZM58.5119 10.984L58.0799 10.54L62.1479 6.472L62.5919 6.904L58.5119 10.984ZM64.5119 10.984L64.0799 10.54L68.1479 6.472L68.5919 6.904L64.5119 10.984ZM72.4041 5.63636C72.4041 6.71023 72.2635 7.69886 71.9822 8.60227C71.7038 9.50284 71.3047 10.3324 70.7848 11.0909H69.8984C70.103 10.8097 70.2933 10.4631 70.4695 10.0511C70.6484 9.64205 70.8047 9.19318 70.9382 8.70455C71.0717 8.21307 71.1754 7.70597 71.2493 7.18324C71.326 6.65767 71.3643 6.14205 71.3643 5.63636C71.3643 4.96023 71.299 4.27415 71.1683 3.57812C71.0376 2.8821 70.8615 2.2358 70.6399 1.6392C70.4183 1.04261 70.1712 0.556818 69.8984 0.181818H70.7848C71.3047 0.940341 71.7038 1.77131 71.9822 2.67472C72.2635 3.57528 72.4041 4.5625 72.4041 5.63636ZM83.195 10.1364L78.8143 5.75568C78.4648 5.40625 78.2319 5 78.1154 4.53693C78.0018 4.07386 78.0032 3.61364 78.1197 3.15625C78.2362 2.69602 78.4677 2.29545 78.8143 1.95455C79.1694 1.60511 79.5742 1.37358 80.0288 1.25994C80.4862 1.14347 80.9421 1.14347 81.3967 1.25994C81.854 1.37642 82.2603 1.60795 82.6154 1.95455L83.195 2.51705L83.7745 1.95455C84.1325 1.60795 84.5387 1.37642 84.9933 1.25994C85.4478 1.14347 85.9023 1.14347 86.3569 1.25994C86.8143 1.37358 87.2205 1.60511 87.5756 1.95455C87.9222 2.29545 88.1538 2.69602 88.2702 3.15625C88.3867 3.61364 88.3867 4.07386 88.2702 4.53693C88.1566 5 87.9251 5.40625 87.5756 5.75568L83.195 10.1364ZM83.195 8.81108L86.9109 5.09091C87.1381 4.86648 87.2887 4.60369 87.3626 4.30256C87.4393 4.00142 87.4407 3.7017 87.3668 3.40341C87.293 3.10227 87.1438 2.84233 86.9194 2.62358C86.6864 2.39347 86.4208 2.24148 86.1225 2.16761C85.8271 2.09091 85.5302 2.09091 85.2319 2.16761C84.9336 2.24432 84.6651 2.39773 84.4265 2.62784L83.195 3.82528L81.9634 2.62784C81.7276 2.39773 81.4592 2.24432 81.158 2.16761C80.8597 2.09091 80.5614 2.09091 80.2631 2.16761C79.9677 2.24148 79.7035 2.39347 79.4705 2.62358C79.2461 2.84233 79.0969 3.10227 79.0231 3.40341C78.9492 3.7017 78.9506 4.00142 79.0273 4.30256C79.104 4.60369 79.2546 4.86648 79.479 5.09091L83.195 8.81108Z" fill="#8A5B4A"/>
</svg>
